# Blender 4.0.0
# www.blender.org
mtllib prism.mtl
o Cone
v 0.000000 0.000000 -1.000000
v 1.000000 0.000000 0.000000
v 0.000000 0.000000 1.000000
v -1.000000 0.000000 0.000000
v 0.000000 2.000000 0.000000
v 0.000000 -2.000000 0.000000
vn 0.6667 0.3333 -0.6667
vn 0.6667 0.3333 0.6667
vn -0.0000 -1.0000 -0.0000
vn -0.6667 0.3333 0.6667
vn -0.6667 0.3333 -0.6667
vn 0.6667 -0.3333 -0.6667
vn 0.6667 -0.3333 0.6667
vn -0.6667 -0.3333 0.6667
vn -0.6667 -0.3333 -0.6667
vt 0.250000 0.490000
vt 0.250000 0.250000
vt 0.490000 0.250000
vt 0.250000 0.010000
vt 0.990000 0.250000
vt 0.510000 0.250000
vt 0.750000 0.490000
vt 0.010000 0.250000
vt 0.750000 0.010000
s 0
f 1/1/1 5/2/1 2/3/1
f 2/3/2 5/2/2 3/4/2
f 2/5/3 4/6/3 1/7/3
f 3/4/4 5/2/4 4/8/4
f 4/8/5 5/2/5 1/1/5
f 1/1/6 2/3/6 6/2/6
f 2/3/7 3/4/7 6/2/7
f 3/4/8 4/8/8 6/2/8
f 4/8/9 1/1/9 6/2/9
f 2/5/3 3/9/3 4/6/3
